<?xml version="1.0" standalone="no"?>
<!DOCTYPE svg PUBLIC "-//W3C//DTD SVG 20010904//EN"
 "http://www.w3.org/TR/2001/REC-SVG-20010904/DTD/svg10.dtd">
<svg version="1.0" xmlns="http://www.w3.org/2000/svg"
 width="700.000000pt" height="700.000000pt" viewBox="0 0 700.000000 700.000000"
 preserveAspectRatio="xMidYMid meet">
<metadata>
Created by potrace 1.11, written by Peter Selinger 2001-2013
</metadata>
<g transform="translate(0.000000,700.000000) scale(0.100000,-0.100000)"
fill="#000000" stroke="none">
<path d="M2210 6509 c-25 -4 -58 -10 -75 -14 -16 -3 -39 -8 -50 -10 -63 -11
-180 -51 -208 -69 -41 -28 -44 -57 -14 -126 26 -61 26 -113 1 -161 -45 -88
-256 -241 -364 -265 -68 -15 -119 0 -173 50 -71 66 -100 66 -158 4 -85 -91
-219 -324 -219 -379 0 -28 39 -69 65 -69 43 0 112 -60 131 -116 14 -41 16
-166 3 -222 -4 -20 -11 -52 -14 -70 -17 -99 -71 -194 -124 -222 -23 -11 -67
-21 -107 -24 -38 -2 -70 -5 -71 -5 -12 -5 -29 -64 -28 -96 8 -140 63 -357 107
-418 18 -26 25 -28 58 -23 20 3 51 13 69 22 106 53 212 -10 337 -197 42 -64
91 -177 89 -209 -3 -53 -20 -92 -56 -131 -22 -24 -45 -52 -50 -61 -22 -41 29
-99 171 -193 119 -78 190 -114 239 -121 33 -5 41 -2 60 22 11 15 21 33 21 40
0 33 51 98 93 120 66 35 234 27 377 -17 127 -39 179 -98 184 -206 2 -32 4 -64
5 -71 2 -20 58 -39 104 -36 155 12 345 61 410 106 33 23 34 49 7 114 -54 125
-2 222 189 348 85 57 162 87 222 88 55 0 76 -10 131 -62 23 -21 49 -41 59 -43
23 -6 63 15 94 50 35 39 155 217 155 231 0 6 4 12 8 14 13 5 52 104 52 131 0
30 -23 51 -80 72 -55 21 -107 75 -121 128 -15 58 -10 156 15 272 24 113 71
197 125 225 23 11 66 21 106 23 86 6 98 19 98 112 0 40 -11 121 -25 170 -5 22
-12 49 -14 60 -9 45 -13 62 -28 103 -23 64 -53 102 -81 102 -13 0 -45 -9 -72
-21 -123 -53 -223 2 -346 193 -65 100 -89 159 -88 214 0 55 12 82 55 129 66
72 66 101 -3 163 -60 54 -217 155 -299 192 -81 37 -111 24 -151 -63 -48 -106
-97 -129 -251 -122 -137 7 -270 47 -336 102 -35 29 -52 73 -56 146 -3 40 -11
74 -19 82 -17 17 -97 24 -159 14z m395 -1104 c182 -63 312 -191 366 -360 23
-71 31 -208 17 -281 -27 -140 -138 -294 -262 -364 -30 -17 -58 -31 -60 -31 -3
0 -22 -7 -43 -15 -52 -22 -67 -25 -157 -28 -161 -6 -304 50 -415 164 -46 46
-111 141 -111 160 0 6 -7 24 -15 41 -21 40 -30 99 -29 199 0 101 28 196 79
276 88 137 179 200 375 257 36 11 208 -1 255 -18z"/>
<path d="M2400 5146 c-88 -18 -152 -66 -201 -151 -34 -59 -34 -171 1 -239 93
-182 328 -207 457 -48 23 28 47 71 54 94 51 189 -123 381 -311 344z"/>
<path d="M4261 4147 c-79 -10 -121 -30 -122 -60 -1 -12 -3 -33 -4 -47 -1 -14
-3 -37 -4 -52 -1 -38 -62 -103 -125 -136 -70 -36 -107 -50 -211 -78 -143 -39
-226 -27 -275 41 -8 11 -26 32 -41 47 -23 24 -31 26 -59 18 -27 -8 -135 -72
-150 -89 -3 -4 -30 -26 -60 -51 -78 -63 -169 -159 -176 -187 -6 -24 12 -83 26
-83 18 0 51 -71 51 -107 0 -47 -4 -66 -27 -123 -51 -129 -155 -274 -228 -320
-41 -25 -70 -29 -121 -18 -71 17 -80 17 -95 5 -24 -19 -47 -59 -56 -97 -4 -19
-9 -39 -10 -45 -19 -73 -45 -236 -48 -295 -3 -72 -2 -76 27 -102 16 -16 32
-26 36 -24 16 10 92 -18 117 -43 60 -58 102 -202 109 -369 6 -143 -22 -208
-106 -242 -67 -28 -76 -49 -54 -125 13 -46 133 -269 166 -310 36 -44 76 -82
91 -88 10 -3 43 7 78 25 71 35 119 34 193 -3 43 -22 119 -78 125 -91 2 -5 8
-8 13 -8 9 0 103 -96 136 -140 50 -65 57 -123 24 -200 -11 -27 -21 -55 -21
-62 0 -40 115 -105 295 -167 100 -34 146 -44 189 -42 40 2 43 5 75 75 46 103
108 130 296 130 242 0 327 -36 361 -151 20 -70 35 -82 94 -78 89 6 339 93 413
144 45 31 54 59 37 114 -23 73 -23 96 5 153 43 88 236 250 340 285 70 23 107
19 161 -17 65 -44 91 -43 135 4 82 88 208 311 223 393 7 40 -9 62 -73 102 -59
37 -76 78 -76 182 1 94 5 126 25 210 25 98 55 162 97 202 29 26 46 33 95 39
32 4 68 14 80 23 29 24 30 110 4 261 -4 19 -11 62 -17 94 -15 86 -47 164 -75
182 -17 12 -34 14 -66 9 -57 -10 -112 -8 -116 5 -2 5 -10 10 -17 10 -41 0
-210 257 -231 352 -24 109 -17 149 41 213 50 55 51 59 30 101 -38 77 -321 312
-379 315 -39 2 -46 -2 -92 -51 -45 -48 -78 -62 -149 -61 -54 0 -248 59 -287
87 -7 5 -29 17 -48 27 -46 24 -70 45 -100 87 -22 30 -24 44 -22 106 2 80 -7
95 -68 111 -60 17 -281 22 -379 10z m297 -1198 c240 -59 419 -245 487 -504 16
-64 12 -242 -9 -316 -21 -79 -63 -166 -105 -219 -46 -58 -136 -150 -146 -150
-4 0 -22 -10 -39 -23 -32 -24 -117 -63 -171 -78 -142 -42 -335 -25 -477 40
-160 74 -313 257 -354 426 -2 6 -6 21 -10 35 -13 49 -12 225 1 288 15 68 82
217 118 259 37 45 94 100 134 130 21 15 40 30 43 33 9 9 95 49 141 66 58 21
74 24 139 31 30 3 56 6 57 7 8 7 121 -8 191 -25z"/>
</g>
</svg>
