<?xml version="1.0" encoding="UTF-8"?>
<!-- Created with Inkscape (http://www.inkscape.org/) -->
<svg 
width="300mm" 
height="300mm" 
version="1.1" 
viewBox="0 0 1133.9 1133.9" 
xmlns="http://www.w3.org/2000/svg" 
xmlns:cc="http://creativecommons.org/ns#" 
xmlns:dc="http://purl.org/dc/elements/1.1/" 
xmlns:rdf="http://www.w3.org/1999/02/22-rdf-syntax-ns#">
 <metadata>
  <rdf:RDF>
   <cc:Work rdf:about="">
    <dc:format>image/svg+xml</dc:format>
    <dc:type rdf:resource="http://purl.org/dc/dcmitype/StillImage"/>
    <dc:title/>
   </cc:Work>
  </rdf:RDF>
 </metadata>
 <g transform="translate(0,3)" opacity="0">
  <rect 
  x="-62.853" 
  y="-62.735" 
  width="1259.9" 
  height="1250.7" 
  rx="1.1905" 
  ry="1.9695" 
  fill="#fff" 
  fill-opacity=".98673" 
  opacity=".98" 
  stroke="#000" 
  stroke-linecap="round" 
  stroke-linejoin="round" 
  stroke-width=".17791" 
  style="paint-order:stroke fill markers"/>
 </g>
 <g>
  <path d="m371.23 78.701c-6.9577-0.0088-17.09 1.3783-31.844 4.5858-94.424 20.528 14.322 30.31-65.059 85.409-79.381 55.1-50.516-50.201-102.77 31.082-52.253 81.283 31.559 11.306 14.389 106.4-17.169 95.092-71.217 0.22268-50.689 94.647s30.31-14.322 85.409 65.059c55.1 79.381-50.201 50.516 31.082 102.77 81.283 52.253 11.306-31.559 106.4-14.389 95.092 17.169 0.22268 71.217 94.647 50.689s-14.322-30.31 65.059-85.409c79.381-55.1 50.516 50.201 102.77-31.082 52.253-81.283-31.559-11.306-14.389-106.4 17.169-95.092 71.217-0.22268 50.689-94.647-20.528-94.424-30.31 14.322-85.409-65.059-55.1-79.381 50.201-50.516-31.082-102.77-81.283-52.253-11.306 31.559-106.4 14.389-80.234-14.487-25.232-55.227-62.803-55.275zm24.861 175.39a90.03 90.03 0 0 1 90.029 90.029 90.03 90.03 0 0 1-90.029 90.029 90.03 90.03 0 0 1-90.029-90.029 90.03 90.03 0 0 1 90.029-90.029zm0 45.424c-23.356 5e-5 -44.605 21.249-44.605 44.605 6e-5 23.356 21.249 44.605 44.605 44.605 23.356-7e-5 44.605-21.249 44.605-44.605-5e-5 -23.356-21.249-44.605-44.605-44.605z" 
  fill="#008080" 
  fill-opacity="1" 
  stroke="#000" 
  stroke-linecap="round" 
  stroke-linejoin="round" 
  stroke-width=".43435" 
  style="paint-order:stroke fill markers"/>
  <animateTransform
    id="gear1"
    attributeName="transform"
    type="rotate"
    from="0 396 344"
    to="90 396 344"
    begin="0s;gear1.end"
    dur=".9s"
    />
 </g>
 <g>
  <path d="m710.34 460.99c-84.582 0.71436 5.4694 28.972-85.891 59.182-86.581 28.629-31.773-51.858-102.29 5.9648-76.808 62.982 17.736 21.645-34.463 106.15-47.923 77.584-57.673-19.301-74.523 70.32-18.355 97.619 27.5 5.1793 41.834 103.47 13.16 90.237-56.588 22.284-11.889 101.77 48.688 86.578 24.395-13.707 98.555 52.373 68.084 60.667-29.023 53.444 56.311 85.602 92.948 35.027 9.8769-26.18 109.16-23.228 91.151 2.7099 12.12 59.596 98.16 29.379 93.717-32.914-9.2648-26.405 68.689-87.963 71.568-56.515 47.593 37.863 94.08-40.59 50.635-85.454-24.069-14.273-3.9219-111.54 18.497-89.296 60.796-1.5885 45.978-91.568-16.14-98.009-27.611 4.5395-74.697-82.92-43.229-80.294 45.552-40.295-23.637-99.699-75.363-64.705-18.235 21.223-110.52-15.508-84.727-33.722 8.9925-60.147-82.193-61.18-3.1038-0.03514-6.0137-0.04062-8.7422-0.01758zm0.72266 191.32a108.57 108.57 0 0 1 108.57 108.57 108.57 108.57 0 0 1-108.57 108.57 108.57 108.57 0 0 1-108.57-108.57 108.57 108.57 0 0 1 108.57-108.57z" 
  fill="#d35f5f" 
  fill-opacity=".98673" 
  opacity="1" stroke="#000" 
  stroke-linecap="round" 
  stroke-linejoin="round" 
  stroke-width=".11742" 
  style="paint-order:stroke fill markers"/>
  <animateTransform
    id="gear2"
    attributeName="transform"
    type="rotate"
    from="0 711 761"
    to="-80.1 711 761"
    begin="gear1.begin"
    dur=".9"
    />
 </g>
</svg>
